<svg width="299" height="496" fill="none" xmlns="http://www.w3.org/2000/svg"><circle cx="197.236" cy="278.943" r="38.498" transform="rotate(-180 197.236 278.943)" stroke="#849FFF"/><circle cx="146.717" cy="354.043" r="38.498" transform="rotate(-180 146.717 354.043)" stroke="#849FFF"/><circle cx="56.377" cy="382.998" r="38.498" transform="rotate(-180 56.377 382.998)" stroke="#849FFF"/><circle cx="278.881" cy="285.508" r="15.388" transform="rotate(-180 278.881 285.508)" stroke="#849FFF"/><circle cx="215.105" cy="410.849" r="15.388" transform="rotate(-180 215.105 410.849)" stroke="#849FFF"/><circle cx="96.389" cy="467.022" r="15.388" transform="rotate(-180 96.389 467.022)" stroke="#849FFF"/><circle cx="62.254" cy="234.474" r="83.754" transform="rotate(-180 62.254 234.474)" stroke="#849FFF"/><circle cx="29.159" cy="91.964" r="38.498" transform="rotate(-180 29.159 91.964)" stroke="#849FFF"/><circle cx="121.954" cy="111.222" r="38.498" transform="rotate(-180 121.954 111.222)" stroke="#849FFF"/><circle cx="96.004" cy="23.591" r="23.091" transform="rotate(-180 96.004 23.591)" stroke="#849FFF"/><circle cx="164.74" cy="37.846" r="15.388" transform="rotate(-180 164.74 37.846)" stroke="#849FFF"/><circle cx="264.464" cy="158.405" r="15.388" transform="rotate(-180 264.464 158.405)" stroke="#849FFF"/><circle cx="28.001" cy="17.087" r="15.388" transform="rotate(-180 28 17.087)" stroke="#849FFF"/><circle cx="212.467" cy="100.63" r="23.091" transform="rotate(-180 212.467 100.63)" stroke="#849FFF"/><circle cx="275.056" cy="223.882" r="23.091" transform="rotate(-180 275.056 223.882)" stroke="#849FFF"/><circle cx="248.868" cy="351.956" r="23.091" transform="rotate(-180 248.868 351.956)" stroke="#849FFF"/><circle cx="159.107" cy="446.349" r="23.091" transform="rotate(-180 159.107 446.349)" stroke="#849FFF"/><circle cx="30.546" cy="472.409" r="23.091" transform="rotate(-180 30.546 472.409)" stroke="#849FFF"/><circle cx="188.2" cy="186.322" r="38.498" transform="rotate(-180 188.2 186.322)" stroke="#849FFF"/></svg>