<svg width="477" height="967" fill="none" xmlns="http://www.w3.org/2000/svg"><circle r="75.53" transform="matrix(1 0 0 -1 197.712 543.826)" stroke="#849FFF"/><circle r="75.53" transform="matrix(1 0 0 -1 296.204 690.241)" stroke="#849FFF"/><circle r="75.53" transform="matrix(1 0 0 -1 472.331 746.691)" stroke="#849FFF"/><circle r="30.475" transform="matrix(1 0 0 -1 38.537 556.626)" stroke="#849FFF"/><circle r="30.475" transform="matrix(1 0 0 -1 162.874 800.99)" stroke="#849FFF"/><circle r="30.475" transform="matrix(1 0 0 -1 394.322 910.505)" stroke="#849FFF"/><circle r="163.762" transform="matrix(1 0 0 -1 460.872 457.13)" stroke="#849FFF"/><circle r="75.53" transform="matrix(1 0 0 -1 525.394 179.293)" stroke="#849FFF"/><circle r="75.53" transform="matrix(1 0 0 -1 344.48 216.839)" stroke="#849FFF"/><circle r="45.493" transform="matrix(1 0 0 -1 395.074 45.993)" stroke="#849FFF"/><circle r="30.475" transform="matrix(1 0 0 -1 261.066 73.785)" stroke="#849FFF"/><circle r="30.475" transform="matrix(1 0 0 -1 66.643 308.826)" stroke="#849FFF"/><circle r="45.493" transform="matrix(1 0 0 -1 168.016 196.189)" stroke="#849FFF"/><circle r="45.493" transform="matrix(1 0 0 -1 45.993 436.48)" stroke="#849FFF"/><circle r="45.493" transform="matrix(1 0 0 -1 97.05 686.172)" stroke="#849FFF"/><circle r="45.493" transform="matrix(1 0 0 -1 272.048 870.201)" stroke="#849FFF"/><circle r="45.493" transform="matrix(1 0 0 -1 522.689 921.007)" stroke="#849FFF"/><circle r="75.53" transform="matrix(1 0 0 -1 215.329 363.253)" stroke="#849FFF"/></svg>