<svg width="37" height="37" fill="none" xmlns="http://www.w3.org/2000/svg"><path d="M36.353 27.64c-.418-.445-1.894-1.762-4.607-3.503-2.733-1.757-4.749-2.853-5.327-3.108a.307.307 0 0 0-.314.04c-.931.725-2.5 2.06-2.583 2.132-.543.465-.543.465-.988.32-.781-.256-3.21-1.546-5.325-3.666s-3.471-4.609-3.727-5.39c-.147-.445-.147-.445.32-.988.072-.084 1.407-1.652 2.133-2.582a.307.307 0 0 0 .04-.314c-.256-.579-1.352-2.594-3.108-5.327-1.745-2.712-3.06-4.188-3.505-4.606a.312.312 0 0 0-.311-.07 25.813 25.813 0 0 0-4.485 2.039c-1.377.8-2.68 1.72-3.895 2.75a.307.307 0 0 0-.101.3c.167.78.967 4.036 3.45 8.546 2.532 4.603 4.288 6.96 8.007 10.668 3.72 3.706 6.153 5.567 10.76 8.1 4.51 2.483 7.768 3.283 8.546 3.45a.31.31 0 0 0 .3-.102 27.04 27.04 0 0 0 2.75-3.895 25.84 25.84 0 0 0 2.038-4.485.312.312 0 0 0-.068-.309Z" fill="#fff"/></svg>